solid Carbon beam - Aluminium strip-1
   facet normal 3.577246e-15 1.000000e+00 1.224647e-16
      outer loop
         vertex 2.622509e+02 2.425659e+02 6.194422e+02
         vertex 2.178009e+02 2.425659e+02 6.194422e+02
         vertex 2.622509e+02 2.425659e+02 6.194523e+02
      endloop
   endfacet
   facet normal 3.577246e-15 1.000000e+00 1.224647e-16
      outer loop
         vertex 2.622509e+02 2.425659e+02 6.194523e+02
         vertex 2.178009e+02 2.425659e+02 6.194422e+02
         vertex 2.178009e+02 2.425659e+02 6.194523e+02
      endloop
   endfacet
   facet normal 1.000000e+00 -3.577246e-15 -7.888609e-31
      outer loop
         vertex 2.622509e+02 2.374859e+02 6.194422e+02
         vertex 2.622509e+02 2.425659e+02 6.194422e+02
         vertex 2.622509e+02 2.374859e+02 6.194523e+02
      endloop
   endfacet
   facet normal 1.000000e+00 -3.577246e-15 -7.888609e-31
      outer loop
         vertex 2.622509e+02 2.374859e+02 6.194523e+02
         vertex 2.622509e+02 2.425659e+02 6.194422e+02
         vertex 2.622509e+02 2.425659e+02 6.194523e+02
      endloop
   endfacet
   facet normal -3.577246e-15 -1.000000e+00 -1.224647e-16
      outer loop
         vertex 2.178009e+02 2.374859e+02 6.194422e+02
         vertex 2.622509e+02 2.374859e+02 6.194422e+02
         vertex 2.178009e+02 2.374859e+02 6.194523e+02
      endloop
   endfacet
   facet normal -3.577246e-15 -1.000000e+00 -1.224647e-16
      outer loop
         vertex 2.178009e+02 2.374859e+02 6.194523e+02
         vertex 2.622509e+02 2.374859e+02 6.194422e+02
         vertex 2.622509e+02 2.374859e+02 6.194523e+02
      endloop
   endfacet
   facet normal -1.000000e+00 3.577246e-15 7.888609e-31
      outer loop
         vertex 2.178009e+02 2.425659e+02 6.194422e+02
         vertex 2.178009e+02 2.374859e+02 6.194422e+02
         vertex 2.178009e+02 2.425659e+02 6.194523e+02
      endloop
   endfacet
   facet normal -1.000000e+00 3.577246e-15 7.888609e-31
      outer loop
         vertex 2.178009e+02 2.425659e+02 6.194523e+02
         vertex 2.178009e+02 2.374859e+02 6.194422e+02
         vertex 2.178009e+02 2.374859e+02 6.194523e+02
      endloop
   endfacet
   facet normal 0.000000e+00 1.224647e-16 -1.000000e+00
      outer loop
         vertex 2.202711e+02 2.410048e+02 6.194422e+02
         vertex 2.197059e+02 2.411562e+02 6.194422e+02
         vertex 2.178009e+02 2.425659e+02 6.194422e+02
      endloop
   endfacet
   facet normal 0.000000e+00 1.224647e-16 -1.000000e+00
      outer loop
         vertex 2.178009e+02 2.425659e+02 6.194422e+02
         vertex 2.197059e+02 2.411562e+02 6.194422e+02
         vertex 2.191408e+02 2.410048e+02 6.194422e+02
      endloop
   endfacet
   facet normal 0.000000e+00 1.224647e-16 -1.000000e+00
      outer loop
         vertex 2.609111e+02 2.410048e+02 6.194422e+02
         vertex 2.603459e+02 2.411562e+02 6.194422e+02
         vertex 2.622509e+02 2.425659e+02 6.194422e+02
      endloop
   endfacet
   facet normal 0.000000e+00 1.224647e-16 -1.000000e+00
      outer loop
         vertex 2.622509e+02 2.425659e+02 6.194422e+02
         vertex 2.603459e+02 2.411562e+02 6.194422e+02
         vertex 2.597808e+02 2.410048e+02 6.194422e+02
      endloop
   endfacet
   facet normal 0.000000e+00 1.224647e-16 -1.000000e+00
      outer loop
         vertex 2.622509e+02 2.425659e+02 6.194422e+02
         vertex 2.597808e+02 2.410048e+02 6.194422e+02
         vertex 2.178009e+02 2.425659e+02 6.194422e+02
      endloop
   endfacet
   facet normal 0.000000e+00 1.224647e-16 -1.000000e+00
      outer loop
         vertex 2.178009e+02 2.425659e+02 6.194422e+02
         vertex 2.597808e+02 2.410048e+02 6.194422e+02
         vertex 2.593671e+02 2.405911e+02 6.194422e+02
      endloop
   endfacet
   facet normal 0.000000e+00 1.224647e-16 -1.000000e+00
      outer loop
         vertex 2.178009e+02 2.425659e+02 6.194422e+02
         vertex 2.593671e+02 2.405911e+02 6.194422e+02
         vertex 2.202711e+02 2.410048e+02 6.194422e+02
      endloop
   endfacet
   facet normal 0.000000e+00 1.224647e-16 -1.000000e+00
      outer loop
         vertex 2.191408e+02 2.410048e+02 6.194422e+02
         vertex 2.187271e+02 2.405911e+02 6.194422e+02
         vertex 2.178009e+02 2.425659e+02 6.194422e+02
      endloop
   endfacet
   facet normal 0.000000e+00 1.224647e-16 -1.000000e+00
      outer loop
         vertex 2.178009e+02 2.425659e+02 6.194422e+02
         vertex 2.187271e+02 2.405911e+02 6.194422e+02
         vertex 2.185756e+02 2.400259e+02 6.194422e+02
      endloop
   endfacet
   facet normal 0.000000e+00 1.224647e-16 -1.000000e+00
      outer loop
         vertex 2.178009e+02 2.425659e+02 6.194422e+02
         vertex 2.185756e+02 2.400259e+02 6.194422e+02
         vertex 2.178009e+02 2.374859e+02 6.194422e+02
      endloop
   endfacet
   facet normal 0.000000e+00 1.224647e-16 -1.000000e+00
      outer loop
         vertex 2.178009e+02 2.374859e+02 6.194422e+02
         vertex 2.185756e+02 2.400259e+02 6.194422e+02
         vertex 2.187271e+02 2.394608e+02 6.194422e+02
      endloop
   endfacet
   facet normal 0.000000e+00 1.224647e-16 -1.000000e+00
      outer loop
         vertex 2.178009e+02 2.374859e+02 6.194422e+02
         vertex 2.187271e+02 2.394608e+02 6.194422e+02
         vertex 2.191408e+02 2.390471e+02 6.194422e+02
      endloop
   endfacet
   facet normal 0.000000e+00 1.224647e-16 -1.000000e+00
      outer loop
         vertex 2.191408e+02 2.390471e+02 6.194422e+02
         vertex 2.197059e+02 2.388956e+02 6.194422e+02
         vertex 2.178009e+02 2.374859e+02 6.194422e+02
      endloop
   endfacet
   facet normal 0.000000e+00 1.224647e-16 -1.000000e+00
      outer loop
         vertex 2.178009e+02 2.374859e+02 6.194422e+02
         vertex 2.197059e+02 2.388956e+02 6.194422e+02
         vertex 2.202711e+02 2.390471e+02 6.194422e+02
      endloop
   endfacet
   facet normal 0.000000e+00 1.224647e-16 -1.000000e+00
      outer loop
         vertex 2.178009e+02 2.374859e+02 6.194422e+02
         vertex 2.202711e+02 2.390471e+02 6.194422e+02
         vertex 2.622509e+02 2.374859e+02 6.194422e+02
      endloop
   endfacet
   facet normal 0.000000e+00 1.224647e-16 -1.000000e+00
      outer loop
         vertex 2.603459e+02 2.388956e+02 6.194422e+02
         vertex 2.609111e+02 2.390471e+02 6.194422e+02
         vertex 2.622509e+02 2.374859e+02 6.194422e+02
      endloop
   endfacet
   facet normal 0.000000e+00 1.224647e-16 -1.000000e+00
      outer loop
         vertex 2.609111e+02 2.390471e+02 6.194422e+02
         vertex 2.613248e+02 2.394608e+02 6.194422e+02
         vertex 2.622509e+02 2.374859e+02 6.194422e+02
      endloop
   endfacet
   facet normal 0.000000e+00 1.224647e-16 -1.000000e+00
      outer loop
         vertex 2.622509e+02 2.374859e+02 6.194422e+02
         vertex 2.613248e+02 2.394608e+02 6.194422e+02
         vertex 2.614762e+02 2.400259e+02 6.194422e+02
      endloop
   endfacet
   facet normal 0.000000e+00 1.224647e-16 -1.000000e+00
      outer loop
         vertex 2.622509e+02 2.374859e+02 6.194422e+02
         vertex 2.614762e+02 2.400259e+02 6.194422e+02
         vertex 2.622509e+02 2.425659e+02 6.194422e+02
      endloop
   endfacet
   facet normal 0.000000e+00 1.224647e-16 -1.000000e+00
      outer loop
         vertex 2.622509e+02 2.425659e+02 6.194422e+02
         vertex 2.614762e+02 2.400259e+02 6.194422e+02
         vertex 2.613248e+02 2.405911e+02 6.194422e+02
      endloop
   endfacet
   facet normal 0.000000e+00 1.224647e-16 -1.000000e+00
      outer loop
         vertex 2.622509e+02 2.425659e+02 6.194422e+02
         vertex 2.613248e+02 2.405911e+02 6.194422e+02
         vertex 2.609111e+02 2.410048e+02 6.194422e+02
      endloop
   endfacet
   facet normal 0.000000e+00 1.224647e-16 -1.000000e+00
      outer loop
         vertex 2.603459e+02 2.388956e+02 6.194422e+02
         vertex 2.622509e+02 2.374859e+02 6.194422e+02
         vertex 2.597808e+02 2.390471e+02 6.194422e+02
      endloop
   endfacet
   facet normal 0.000000e+00 1.224647e-16 -1.000000e+00
      outer loop
         vertex 2.597808e+02 2.390471e+02 6.194422e+02
         vertex 2.622509e+02 2.374859e+02 6.194422e+02
         vertex 2.202711e+02 2.390471e+02 6.194422e+02
      endloop
   endfacet
   facet normal 0.000000e+00 1.224647e-16 -1.000000e+00
      outer loop
         vertex 2.597808e+02 2.390471e+02 6.194422e+02
         vertex 2.202711e+02 2.390471e+02 6.194422e+02
         vertex 2.593671e+02 2.394608e+02 6.194422e+02
      endloop
   endfacet
   facet normal 0.000000e+00 1.224647e-16 -1.000000e+00
      outer loop
         vertex 2.593671e+02 2.394608e+02 6.194422e+02
         vertex 2.202711e+02 2.390471e+02 6.194422e+02
         vertex 2.206848e+02 2.394608e+02 6.194422e+02
      endloop
   endfacet
   facet normal 0.000000e+00 1.224647e-16 -1.000000e+00
      outer loop
         vertex 2.593671e+02 2.394608e+02 6.194422e+02
         vertex 2.206848e+02 2.394608e+02 6.194422e+02
         vertex 2.592156e+02 2.400259e+02 6.194422e+02
      endloop
   endfacet
   facet normal 0.000000e+00 1.224647e-16 -1.000000e+00
      outer loop
         vertex 2.592156e+02 2.400259e+02 6.194422e+02
         vertex 2.206848e+02 2.394608e+02 6.194422e+02
         vertex 2.208362e+02 2.400259e+02 6.194422e+02
      endloop
   endfacet
   facet normal 0.000000e+00 1.224647e-16 -1.000000e+00
      outer loop
         vertex 2.592156e+02 2.400259e+02 6.194422e+02
         vertex 2.208362e+02 2.400259e+02 6.194422e+02
         vertex 2.593671e+02 2.405911e+02 6.194422e+02
      endloop
   endfacet
   facet normal 0.000000e+00 1.224647e-16 -1.000000e+00
      outer loop
         vertex 2.593671e+02 2.405911e+02 6.194422e+02
         vertex 2.208362e+02 2.400259e+02 6.194422e+02
         vertex 2.206848e+02 2.405911e+02 6.194422e+02
      endloop
   endfacet
   facet normal 0.000000e+00 1.224647e-16 -1.000000e+00
      outer loop
         vertex 2.593671e+02 2.405911e+02 6.194422e+02
         vertex 2.206848e+02 2.405911e+02 6.194422e+02
         vertex 2.202711e+02 2.410048e+02 6.194422e+02
      endloop
   endfacet
   facet normal 0.000000e+00 -1.224647e-16 1.000000e+00
      outer loop
         vertex 2.622509e+02 2.374859e+02 6.194523e+02
         vertex 2.202711e+02 2.390471e+02 6.194523e+02
         vertex 2.178009e+02 2.374859e+02 6.194523e+02
      endloop
   endfacet
   facet normal 0.000000e+00 -1.224647e-16 1.000000e+00
      outer loop
         vertex 2.178009e+02 2.374859e+02 6.194523e+02
         vertex 2.202711e+02 2.390471e+02 6.194523e+02
         vertex 2.197059e+02 2.388956e+02 6.194523e+02
      endloop
   endfacet
   facet normal 0.000000e+00 -1.224647e-16 1.000000e+00
      outer loop
         vertex 2.178009e+02 2.374859e+02 6.194523e+02
         vertex 2.197059e+02 2.388956e+02 6.194523e+02
         vertex 2.191408e+02 2.390471e+02 6.194523e+02
      endloop
   endfacet
   facet normal 0.000000e+00 -1.224647e-16 1.000000e+00
      outer loop
         vertex 2.191408e+02 2.390471e+02 6.194523e+02
         vertex 2.187271e+02 2.394608e+02 6.194523e+02
         vertex 2.178009e+02 2.374859e+02 6.194523e+02
      endloop
   endfacet
   facet normal 0.000000e+00 -1.224647e-16 1.000000e+00
      outer loop
         vertex 2.178009e+02 2.374859e+02 6.194523e+02
         vertex 2.187271e+02 2.394608e+02 6.194523e+02
         vertex 2.185756e+02 2.400259e+02 6.194523e+02
      endloop
   endfacet
   facet normal 0.000000e+00 -1.224647e-16 1.000000e+00
      outer loop
         vertex 2.178009e+02 2.374859e+02 6.194523e+02
         vertex 2.185756e+02 2.400259e+02 6.194523e+02
         vertex 2.178009e+02 2.425659e+02 6.194523e+02
      endloop
   endfacet
   facet normal 0.000000e+00 -1.224647e-16 1.000000e+00
      outer loop
         vertex 2.178009e+02 2.425659e+02 6.194523e+02
         vertex 2.185756e+02 2.400259e+02 6.194523e+02
         vertex 2.187271e+02 2.405911e+02 6.194523e+02
      endloop
   endfacet
   facet normal 0.000000e+00 -1.224647e-16 1.000000e+00
      outer loop
         vertex 2.178009e+02 2.425659e+02 6.194523e+02
         vertex 2.187271e+02 2.405911e+02 6.194523e+02
         vertex 2.191408e+02 2.410048e+02 6.194523e+02
      endloop
   endfacet
   facet normal 0.000000e+00 -1.224647e-16 1.000000e+00
      outer loop
         vertex 2.191408e+02 2.410048e+02 6.194523e+02
         vertex 2.197059e+02 2.411562e+02 6.194523e+02
         vertex 2.178009e+02 2.425659e+02 6.194523e+02
      endloop
   endfacet
   facet normal 0.000000e+00 -1.224647e-16 1.000000e+00
      outer loop
         vertex 2.178009e+02 2.425659e+02 6.194523e+02
         vertex 2.197059e+02 2.411562e+02 6.194523e+02
         vertex 2.202711e+02 2.410048e+02 6.194523e+02
      endloop
   endfacet
   facet normal 0.000000e+00 -1.224647e-16 1.000000e+00
      outer loop
         vertex 2.178009e+02 2.425659e+02 6.194523e+02
         vertex 2.202711e+02 2.410048e+02 6.194523e+02
         vertex 2.622509e+02 2.425659e+02 6.194523e+02
      endloop
   endfacet
   facet normal 0.000000e+00 -1.224647e-16 1.000000e+00
      outer loop
         vertex 2.622509e+02 2.425659e+02 6.194523e+02
         vertex 2.202711e+02 2.410048e+02 6.194523e+02
         vertex 2.206848e+02 2.405911e+02 6.194523e+02
      endloop
   endfacet
   facet normal 0.000000e+00 -1.224647e-16 1.000000e+00
      outer loop
         vertex 2.622509e+02 2.425659e+02 6.194523e+02
         vertex 2.206848e+02 2.405911e+02 6.194523e+02
         vertex 2.208362e+02 2.400259e+02 6.194523e+02
      endloop
   endfacet
   facet normal 0.000000e+00 -1.224647e-16 1.000000e+00
      outer loop
         vertex 2.593671e+02 2.394608e+02 6.194523e+02
         vertex 2.592156e+02 2.400259e+02 6.194523e+02
         vertex 2.208362e+02 2.400259e+02 6.194523e+02
      endloop
   endfacet
   facet normal 0.000000e+00 -1.224647e-16 1.000000e+00
      outer loop
         vertex 2.592156e+02 2.400259e+02 6.194523e+02
         vertex 2.593671e+02 2.405911e+02 6.194523e+02
         vertex 2.208362e+02 2.400259e+02 6.194523e+02
      endloop
   endfacet
   facet normal 0.000000e+00 -1.224647e-16 1.000000e+00
      outer loop
         vertex 2.208362e+02 2.400259e+02 6.194523e+02
         vertex 2.593671e+02 2.405911e+02 6.194523e+02
         vertex 2.597808e+02 2.410048e+02 6.194523e+02
      endloop
   endfacet
   facet normal 0.000000e+00 -1.224647e-16 1.000000e+00
      outer loop
         vertex 2.208362e+02 2.400259e+02 6.194523e+02
         vertex 2.597808e+02 2.410048e+02 6.194523e+02
         vertex 2.622509e+02 2.425659e+02 6.194523e+02
      endloop
   endfacet
   facet normal 0.000000e+00 -1.224647e-16 1.000000e+00
      outer loop
         vertex 2.622509e+02 2.425659e+02 6.194523e+02
         vertex 2.597808e+02 2.410048e+02 6.194523e+02
         vertex 2.603459e+02 2.411562e+02 6.194523e+02
      endloop
   endfacet
   facet normal 0.000000e+00 -1.224647e-16 1.000000e+00
      outer loop
         vertex 2.622509e+02 2.425659e+02 6.194523e+02
         vertex 2.603459e+02 2.411562e+02 6.194523e+02
         vertex 2.609111e+02 2.410048e+02 6.194523e+02
      endloop
   endfacet
   facet normal 0.000000e+00 -1.224647e-16 1.000000e+00
      outer loop
         vertex 2.609111e+02 2.410048e+02 6.194523e+02
         vertex 2.613248e+02 2.405911e+02 6.194523e+02
         vertex 2.622509e+02 2.425659e+02 6.194523e+02
      endloop
   endfacet
   facet normal 0.000000e+00 -1.224647e-16 1.000000e+00
      outer loop
         vertex 2.622509e+02 2.425659e+02 6.194523e+02
         vertex 2.613248e+02 2.405911e+02 6.194523e+02
         vertex 2.614762e+02 2.400259e+02 6.194523e+02
      endloop
   endfacet
   facet normal 0.000000e+00 -1.224647e-16 1.000000e+00
      outer loop
         vertex 2.622509e+02 2.425659e+02 6.194523e+02
         vertex 2.614762e+02 2.400259e+02 6.194523e+02
         vertex 2.622509e+02 2.374859e+02 6.194523e+02
      endloop
   endfacet
   facet normal 0.000000e+00 -1.224647e-16 1.000000e+00
      outer loop
         vertex 2.622509e+02 2.374859e+02 6.194523e+02
         vertex 2.614762e+02 2.400259e+02 6.194523e+02
         vertex 2.613248e+02 2.394608e+02 6.194523e+02
      endloop
   endfacet
   facet normal 0.000000e+00 -1.224647e-16 1.000000e+00
      outer loop
         vertex 2.622509e+02 2.374859e+02 6.194523e+02
         vertex 2.613248e+02 2.394608e+02 6.194523e+02
         vertex 2.609111e+02 2.390471e+02 6.194523e+02
      endloop
   endfacet
   facet normal 0.000000e+00 -1.224647e-16 1.000000e+00
      outer loop
         vertex 2.609111e+02 2.390471e+02 6.194523e+02
         vertex 2.603459e+02 2.388956e+02 6.194523e+02
         vertex 2.622509e+02 2.374859e+02 6.194523e+02
      endloop
   endfacet
   facet normal 0.000000e+00 -1.224647e-16 1.000000e+00
      outer loop
         vertex 2.622509e+02 2.374859e+02 6.194523e+02
         vertex 2.603459e+02 2.388956e+02 6.194523e+02
         vertex 2.597808e+02 2.390471e+02 6.194523e+02
      endloop
   endfacet
   facet normal 0.000000e+00 -1.224647e-16 1.000000e+00
      outer loop
         vertex 2.622509e+02 2.374859e+02 6.194523e+02
         vertex 2.597808e+02 2.390471e+02 6.194523e+02
         vertex 2.202711e+02 2.390471e+02 6.194523e+02
      endloop
   endfacet
   facet normal 0.000000e+00 -1.224647e-16 1.000000e+00
      outer loop
         vertex 2.202711e+02 2.390471e+02 6.194523e+02
         vertex 2.597808e+02 2.390471e+02 6.194523e+02
         vertex 2.593671e+02 2.394608e+02 6.194523e+02
      endloop
   endfacet
   facet normal 0.000000e+00 -1.224647e-16 1.000000e+00
      outer loop
         vertex 2.202711e+02 2.390471e+02 6.194523e+02
         vertex 2.593671e+02 2.394608e+02 6.194523e+02
         vertex 2.206848e+02 2.394608e+02 6.194523e+02
      endloop
   endfacet
   facet normal 0.000000e+00 -1.224647e-16 1.000000e+00
      outer loop
         vertex 2.206848e+02 2.394608e+02 6.194523e+02
         vertex 2.593671e+02 2.394608e+02 6.194523e+02
         vertex 2.208362e+02 2.400259e+02 6.194523e+02
      endloop
   endfacet
   facet normal -2.588186e-01 -9.659259e-01 -1.182918e-16
      outer loop
         vertex 2.197059e+02 2.411562e+02 6.194523e+02
         vertex 2.197059e+02 2.411562e+02 6.194422e+02
         vertex 2.202711e+02 2.410048e+02 6.194523e+02
      endloop
   endfacet
   facet normal -2.588186e-01 -9.659259e-01 -1.182918e-16
      outer loop
         vertex 2.202711e+02 2.410048e+02 6.194523e+02
         vertex 2.197059e+02 2.411562e+02 6.194422e+02
         vertex 2.202711e+02 2.410048e+02 6.194422e+02
      endloop
   endfacet
   facet normal -7.071075e-01 -7.071060e-01 -8.659551e-17
      outer loop
         vertex 2.202711e+02 2.410048e+02 6.194523e+02
         vertex 2.202711e+02 2.410048e+02 6.194422e+02
         vertex 2.206848e+02 2.405911e+02 6.194523e+02
      endloop
   endfacet
   facet normal -7.071075e-01 -7.071060e-01 -8.659551e-17
      outer loop
         vertex 2.206848e+02 2.405911e+02 6.194523e+02
         vertex 2.202711e+02 2.410048e+02 6.194422e+02
         vertex 2.206848e+02 2.405911e+02 6.194422e+02
      endloop
   endfacet
   facet normal -9.659260e-01 -2.588186e-01 -3.169613e-17
      outer loop
         vertex 2.206848e+02 2.405911e+02 6.194523e+02
         vertex 2.206848e+02 2.405911e+02 6.194422e+02
         vertex 2.208362e+02 2.400259e+02 6.194523e+02
      endloop
   endfacet
   facet normal -9.659260e-01 -2.588186e-01 -3.169613e-17
      outer loop
         vertex 2.208362e+02 2.400259e+02 6.194523e+02
         vertex 2.206848e+02 2.405911e+02 6.194422e+02
         vertex 2.208362e+02 2.400259e+02 6.194422e+02
      endloop
   endfacet
   facet normal -9.659260e-01 2.588186e-01 3.169613e-17
      outer loop
         vertex 2.208362e+02 2.400259e+02 6.194523e+02
         vertex 2.208362e+02 2.400259e+02 6.194422e+02
         vertex 2.206848e+02 2.394608e+02 6.194523e+02
      endloop
   endfacet
   facet normal -9.659260e-01 2.588186e-01 3.169613e-17
      outer loop
         vertex 2.206848e+02 2.394608e+02 6.194523e+02
         vertex 2.208362e+02 2.400259e+02 6.194422e+02
         vertex 2.206848e+02 2.394608e+02 6.194422e+02
      endloop
   endfacet
   facet normal -7.071075e-01 7.071060e-01 8.659551e-17
      outer loop
         vertex 2.206848e+02 2.394608e+02 6.194523e+02
         vertex 2.206848e+02 2.394608e+02 6.194422e+02
         vertex 2.202711e+02 2.390471e+02 6.194523e+02
      endloop
   endfacet
   facet normal -7.071075e-01 7.071060e-01 8.659551e-17
      outer loop
         vertex 2.202711e+02 2.390471e+02 6.194523e+02
         vertex 2.206848e+02 2.394608e+02 6.194422e+02
         vertex 2.202711e+02 2.390471e+02 6.194422e+02
      endloop
   endfacet
   facet normal -2.588186e-01 9.659259e-01 1.182918e-16
      outer loop
         vertex 2.202711e+02 2.390471e+02 6.194523e+02
         vertex 2.202711e+02 2.390471e+02 6.194422e+02
         vertex 2.197059e+02 2.388956e+02 6.194523e+02
      endloop
   endfacet
   facet normal -2.588186e-01 9.659259e-01 1.182918e-16
      outer loop
         vertex 2.197059e+02 2.388956e+02 6.194523e+02
         vertex 2.202711e+02 2.390471e+02 6.194422e+02
         vertex 2.197059e+02 2.388956e+02 6.194422e+02
      endloop
   endfacet
   facet normal 2.588186e-01 9.659259e-01 1.182918e-16
      outer loop
         vertex 2.197059e+02 2.388956e+02 6.194523e+02
         vertex 2.197059e+02 2.388956e+02 6.194422e+02
         vertex 2.191408e+02 2.390471e+02 6.194523e+02
      endloop
   endfacet
   facet normal 2.588186e-01 9.659259e-01 1.182918e-16
      outer loop
         vertex 2.191408e+02 2.390471e+02 6.194523e+02
         vertex 2.197059e+02 2.388956e+02 6.194422e+02
         vertex 2.191408e+02 2.390471e+02 6.194422e+02
      endloop
   endfacet
   facet normal 7.071075e-01 7.071060e-01 8.659551e-17
      outer loop
         vertex 2.191408e+02 2.390471e+02 6.194523e+02
         vertex 2.191408e+02 2.390471e+02 6.194422e+02
         vertex 2.187271e+02 2.394608e+02 6.194523e+02
      endloop
   endfacet
   facet normal 7.071075e-01 7.071060e-01 8.659551e-17
      outer loop
         vertex 2.187271e+02 2.394608e+02 6.194523e+02
         vertex 2.191408e+02 2.390471e+02 6.194422e+02
         vertex 2.187271e+02 2.394608e+02 6.194422e+02
      endloop
   endfacet
   facet normal 9.659260e-01 2.588186e-01 3.169613e-17
      outer loop
         vertex 2.187271e+02 2.394608e+02 6.194523e+02
         vertex 2.187271e+02 2.394608e+02 6.194422e+02
         vertex 2.185756e+02 2.400259e+02 6.194523e+02
      endloop
   endfacet
   facet normal 9.659260e-01 2.588186e-01 3.169613e-17
      outer loop
         vertex 2.185756e+02 2.400259e+02 6.194523e+02
         vertex 2.187271e+02 2.394608e+02 6.194422e+02
         vertex 2.185756e+02 2.400259e+02 6.194422e+02
      endloop
   endfacet
   facet normal 9.659260e-01 -2.588186e-01 -3.169613e-17
      outer loop
         vertex 2.185756e+02 2.400259e+02 6.194523e+02
         vertex 2.185756e+02 2.400259e+02 6.194422e+02
         vertex 2.187271e+02 2.405911e+02 6.194523e+02
      endloop
   endfacet
   facet normal 9.659260e-01 -2.588186e-01 -3.169613e-17
      outer loop
         vertex 2.187271e+02 2.405911e+02 6.194523e+02
         vertex 2.185756e+02 2.400259e+02 6.194422e+02
         vertex 2.187271e+02 2.405911e+02 6.194422e+02
      endloop
   endfacet
   facet normal 7.071075e-01 -7.071060e-01 -8.659551e-17
      outer loop
         vertex 2.187271e+02 2.405911e+02 6.194523e+02
         vertex 2.187271e+02 2.405911e+02 6.194422e+02
         vertex 2.191408e+02 2.410048e+02 6.194523e+02
      endloop
   endfacet
   facet normal 7.071075e-01 -7.071060e-01 -8.659551e-17
      outer loop
         vertex 2.191408e+02 2.410048e+02 6.194523e+02
         vertex 2.187271e+02 2.405911e+02 6.194422e+02
         vertex 2.191408e+02 2.410048e+02 6.194422e+02
      endloop
   endfacet
   facet normal 2.588186e-01 -9.659259e-01 -1.182918e-16
      outer loop
         vertex 2.191408e+02 2.410048e+02 6.194523e+02
         vertex 2.191408e+02 2.410048e+02 6.194422e+02
         vertex 2.197059e+02 2.411562e+02 6.194523e+02
      endloop
   endfacet
   facet normal 2.588186e-01 -9.659259e-01 -1.182918e-16
      outer loop
         vertex 2.197059e+02 2.411562e+02 6.194523e+02
         vertex 2.191408e+02 2.410048e+02 6.194422e+02
         vertex 2.197059e+02 2.411562e+02 6.194422e+02
      endloop
   endfacet
   facet normal -2.588186e-01 -9.659259e-01 -1.182918e-16
      outer loop
         vertex 2.603459e+02 2.411562e+02 6.194523e+02
         vertex 2.603459e+02 2.411562e+02 6.194422e+02
         vertex 2.609111e+02 2.410048e+02 6.194523e+02
      endloop
   endfacet
   facet normal -2.588186e-01 -9.659259e-01 -1.182918e-16
      outer loop
         vertex 2.609111e+02 2.410048e+02 6.194523e+02
         vertex 2.603459e+02 2.411562e+02 6.194422e+02
         vertex 2.609111e+02 2.410048e+02 6.194422e+02
      endloop
   endfacet
   facet normal -7.071075e-01 -7.071060e-01 -8.659551e-17
      outer loop
         vertex 2.609111e+02 2.410048e+02 6.194523e+02
         vertex 2.609111e+02 2.410048e+02 6.194422e+02
         vertex 2.613248e+02 2.405911e+02 6.194523e+02
      endloop
   endfacet
   facet normal -7.071075e-01 -7.071060e-01 -8.659551e-17
      outer loop
         vertex 2.613248e+02 2.405911e+02 6.194523e+02
         vertex 2.609111e+02 2.410048e+02 6.194422e+02
         vertex 2.613248e+02 2.405911e+02 6.194422e+02
      endloop
   endfacet
   facet normal -9.659260e-01 -2.588186e-01 -3.169613e-17
      outer loop
         vertex 2.613248e+02 2.405911e+02 6.194523e+02
         vertex 2.613248e+02 2.405911e+02 6.194422e+02
         vertex 2.614762e+02 2.400259e+02 6.194523e+02
      endloop
   endfacet
   facet normal -9.659260e-01 -2.588186e-01 -3.169613e-17
      outer loop
         vertex 2.614762e+02 2.400259e+02 6.194523e+02
         vertex 2.613248e+02 2.405911e+02 6.194422e+02
         vertex 2.614762e+02 2.400259e+02 6.194422e+02
      endloop
   endfacet
   facet normal -9.659260e-01 2.588186e-01 3.169613e-17
      outer loop
         vertex 2.614762e+02 2.400259e+02 6.194523e+02
         vertex 2.614762e+02 2.400259e+02 6.194422e+02
         vertex 2.613248e+02 2.394608e+02 6.194523e+02
      endloop
   endfacet
   facet normal -9.659260e-01 2.588186e-01 3.169613e-17
      outer loop
         vertex 2.613248e+02 2.394608e+02 6.194523e+02
         vertex 2.614762e+02 2.400259e+02 6.194422e+02
         vertex 2.613248e+02 2.394608e+02 6.194422e+02
      endloop
   endfacet
   facet normal -7.071075e-01 7.071060e-01 8.659551e-17
      outer loop
         vertex 2.613248e+02 2.394608e+02 6.194523e+02
         vertex 2.613248e+02 2.394608e+02 6.194422e+02
         vertex 2.609111e+02 2.390471e+02 6.194523e+02
      endloop
   endfacet
   facet normal -7.071075e-01 7.071060e-01 8.659551e-17
      outer loop
         vertex 2.609111e+02 2.390471e+02 6.194523e+02
         vertex 2.613248e+02 2.394608e+02 6.194422e+02
         vertex 2.609111e+02 2.390471e+02 6.194422e+02
      endloop
   endfacet
   facet normal -2.588186e-01 9.659259e-01 1.182918e-16
      outer loop
         vertex 2.609111e+02 2.390471e+02 6.194523e+02
         vertex 2.609111e+02 2.390471e+02 6.194422e+02
         vertex 2.603459e+02 2.388956e+02 6.194523e+02
      endloop
   endfacet
   facet normal -2.588186e-01 9.659259e-01 1.182918e-16
      outer loop
         vertex 2.603459e+02 2.388956e+02 6.194523e+02
         vertex 2.609111e+02 2.390471e+02 6.194422e+02
         vertex 2.603459e+02 2.388956e+02 6.194422e+02
      endloop
   endfacet
   facet normal 2.588186e-01 9.659259e-01 1.182918e-16
      outer loop
         vertex 2.603459e+02 2.388956e+02 6.194523e+02
         vertex 2.603459e+02 2.388956e+02 6.194422e+02
         vertex 2.597808e+02 2.390471e+02 6.194523e+02
      endloop
   endfacet
   facet normal 2.588186e-01 9.659259e-01 1.182918e-16
      outer loop
         vertex 2.597808e+02 2.390471e+02 6.194523e+02
         vertex 2.603459e+02 2.388956e+02 6.194422e+02
         vertex 2.597808e+02 2.390471e+02 6.194422e+02
      endloop
   endfacet
   facet normal 7.071075e-01 7.071060e-01 8.659551e-17
      outer loop
         vertex 2.597808e+02 2.390471e+02 6.194523e+02
         vertex 2.597808e+02 2.390471e+02 6.194422e+02
         vertex 2.593671e+02 2.394608e+02 6.194523e+02
      endloop
   endfacet
   facet normal 7.071075e-01 7.071060e-01 8.659551e-17
      outer loop
         vertex 2.593671e+02 2.394608e+02 6.194523e+02
         vertex 2.597808e+02 2.390471e+02 6.194422e+02
         vertex 2.593671e+02 2.394608e+02 6.194422e+02
      endloop
   endfacet
   facet normal 9.659260e-01 2.588186e-01 3.169613e-17
      outer loop
         vertex 2.593671e+02 2.394608e+02 6.194523e+02
         vertex 2.593671e+02 2.394608e+02 6.194422e+02
         vertex 2.592156e+02 2.400259e+02 6.194523e+02
      endloop
   endfacet
   facet normal 9.659260e-01 2.588186e-01 3.169613e-17
      outer loop
         vertex 2.592156e+02 2.400259e+02 6.194523e+02
         vertex 2.593671e+02 2.394608e+02 6.194422e+02
         vertex 2.592156e+02 2.400259e+02 6.194422e+02
      endloop
   endfacet
   facet normal 9.659260e-01 -2.588186e-01 -3.169613e-17
      outer loop
         vertex 2.592156e+02 2.400259e+02 6.194523e+02
         vertex 2.592156e+02 2.400259e+02 6.194422e+02
         vertex 2.593671e+02 2.405911e+02 6.194523e+02
      endloop
   endfacet
   facet normal 9.659260e-01 -2.588186e-01 -3.169613e-17
      outer loop
         vertex 2.593671e+02 2.405911e+02 6.194523e+02
         vertex 2.592156e+02 2.400259e+02 6.194422e+02
         vertex 2.593671e+02 2.405911e+02 6.194422e+02
      endloop
   endfacet
   facet normal 7.071075e-01 -7.071060e-01 -8.659551e-17
      outer loop
         vertex 2.593671e+02 2.405911e+02 6.194523e+02
         vertex 2.593671e+02 2.405911e+02 6.194422e+02
         vertex 2.597808e+02 2.410048e+02 6.194523e+02
      endloop
   endfacet
   facet normal 7.071075e-01 -7.071060e-01 -8.659551e-17
      outer loop
         vertex 2.597808e+02 2.410048e+02 6.194523e+02
         vertex 2.593671e+02 2.405911e+02 6.194422e+02
         vertex 2.597808e+02 2.410048e+02 6.194422e+02
      endloop
   endfacet
   facet normal 2.588186e-01 -9.659259e-01 -1.182918e-16
      outer loop
         vertex 2.597808e+02 2.410048e+02 6.194523e+02
         vertex 2.597808e+02 2.410048e+02 6.194422e+02
         vertex 2.603459e+02 2.411562e+02 6.194523e+02
      endloop
   endfacet
   facet normal 2.588186e-01 -9.659259e-01 -1.182918e-16
      outer loop
         vertex 2.603459e+02 2.411562e+02 6.194523e+02
         vertex 2.597808e+02 2.410048e+02 6.194422e+02
         vertex 2.603459e+02 2.411562e+02 6.194422e+02
      endloop
   endfacet
endsolid